<?xml version="1.0" encoding="utf-8"?>
<!-- Generator: Adobe Illustrator 18.1.1, SVG Export Plug-In . SVG Version: 6.00 Build 0)  -->
<svg version="1.1" xmlns="http://www.w3.org/2000/svg" xmlns:xlink="http://www.w3.org/1999/xlink" x="0px" y="0px"
	 viewBox="0 0 242.9 234.8" enable-background="new 0 0 242.9 234.8" xml:space="preserve">
<g id="Layer_3">
</g>
<g id="Layer_1">
	<g>
		<g>
			<path fill="#FF7133" d="M191.3,113.2l-0.3,89.5c0,1.2-0.4,2.1-1.1,2.5c2.6-1.5,5.1-3,7.7-4.5c0.7-0.4,1.1-1.3,1.1-2.5l0.3-89.5
				L191.3,113.2z"/>
			<path fill="#D1E9F2" d="M195.1,102.1L54.9,21.2c-1.1-0.6-2-0.7-2.7-0.3c-2.6,1.5-5.1,3-7.7,4.5c0.7-0.4,1.7-0.4,2.7,0.3
				l140.1,80.9c2.1,1.2,3.9,4.2,3.8,6.7l7.7-4.5C198.9,106.3,197.2,103.3,195.1,102.1z"/>
			<path fill="#2043A1" d="M187.4,106.6c2.1,1.2,3.9,4.2,3.8,6.7l-0.3,89.5c0,2.4-1.7,3.4-3.9,2.2L47,124c-2.1-1.2-3.9-4.2-3.8-6.7
				l0.3-89.5c0-2.4,1.7-3.4,3.9-2.2L187.4,106.6z"/>
		</g>
		<g>
			<path fill="#E3F6FF" d="M187.4,197.8c0,2.4-1.7,3.4-3.8,2.2L49.5,122.6c-2.1-1.2-3.8-4.2-3.8-6.6l0-84.2c0-2.4,1.7-3.4,3.8-2.2
				l134.1,77.4c2.1,1.2,3.8,4.2,3.8,6.6V197.8z"/>
			<path fill="#32A2ED" d="M110.5,157.7l-64.8-37.4l0-9.9l34.6-6.1c3.8-0.7,9,3.6,11.5,9.4l9.1,21.2L110.5,157.7z"/>
			<path fill="#32A2ED" d="M134,167.5v3.7L78,139l22.7-4l11-1.9c3.8-0.7,9,3.6,11.5,9.4L134,167.5z"/>
			<polygon fill="#FF7133" points="51.3,44.5 101.2,73.3 101.2,68.4 51.3,39.6 			"/>
			<path fill="#32A2ED" d="M126.5,86.2c0,1.7,1.5,4,3.4,5.1l38,21.9c1.9,1.1,3.4,0.6,3.4-1.2c0-1.7-1.5-4-3.4-5.1l-38-21.9
				C128,83.9,126.5,84.4,126.5,86.2z"/>
			<polygon fill="#FF7133" points="51.3,47.7 83.4,66.3 83.4,65.1 51.3,46.5 			"/>
			<path fill="#FFD230" d="M109.3,114.2c0,2.9-2.1,4.1-4.6,2.7c-2.6-1.5-4.6-5.1-4.6-8c0-2.9,2.1-4.1,4.6-2.7
				C107.3,107.7,109.3,111.2,109.3,114.2z"/>
			<g>
				<path fill="#2043A1" d="M178.2,118.7c-1.6-1-3-3.3-3-5.2c0-1.9,1.3-2.7,3-1.7c1.6,1,3,3.3,3,5.2
					C181.2,118.9,179.9,119.7,178.2,118.7z M178.2,112.7c-1.2-0.7-2.2-0.1-2.2,1.3c0,1.4,1,3.2,2.2,3.9c1.2,0.7,2.2,0.1,2.2-1.3
					C180.5,115.2,179.4,113.4,178.2,112.7z"/>
			</g>
			<g>
				<path fill="#2043A1" d="M182.1,122.8c-0.1-0.1-0.2-0.2-0.3-0.3l-2.2-3.8c-0.1-0.3-0.1-0.5,0-0.6c0.1-0.1,0.4,0.1,0.5,0.3
					l2.2,3.8c0.1,0.3,0.1,0.5,0,0.6C182.3,122.9,182.2,122.9,182.1,122.8z"/>
			</g>
		</g>
		<path fill="#FF7133" d="M35.8,16.3c-2.1-1.2-3.9-1.3-3.9,1.5c0-2.8-1.7-4.7-3.9-6c-2.1-1.2-3.9,0-3.9,2.8c0,4.2,5.7,13.9,7.7,15.2
			c2.1,1.2,7.7-2.2,7.7-6.2C39.7,20.8,37.9,17.5,35.8,16.3z"/>
		<g>
			<path fill="#E3F6FF" d="M232.9,141.2c0,0.8-0.6,1.1-1.3,0.7l-14.9-8.6c-0.7-0.4-1.3-1.4-1.3-2.2l0-9.4c0-0.8,0.6-1.1,1.3-0.7
				l14.9,8.6c0.7,0.4,1.3,1.4,1.3,2.2L232.9,141.2z"/>
			<path fill="#32A2ED" d="M234.2,147.4c0.3,0.7,0.1,1-0.4,0.7l-19.3-11.2c-0.5-0.3-0.6-0.8-0.4-1.1l1.2-1.2c0.3-0.3,0.9-0.3,1.3,0
				l14.9,8.6c0.5,0.3,1.1,1,1.3,1.5L234.2,147.4z"/>
		</g>
		<g>
			<g>
				<path fill="#F2559C" d="M65.1,72.7l-0.3,91c0,1.2-0.4,2.1-1.1,2.5c1.7-1,3.4-2,5.1-2.9c0.7-0.4,1.1-1.3,1.1-2.5l0.3-91
					L65.1,72.7z"/>
				<path fill="#D1E9F2" d="M66.2,63L25.4,39.5c-1.1-0.6-2.1-0.7-2.8-0.3c-1.7,1-3.4,2-5.1,2.9c0.7-0.4,1.7-0.4,2.8,0.3L61.2,66
					c2.2,1.2,3.9,4.3,3.9,6.8l5.1-2.9C70.1,67.3,68.4,64.3,66.2,63z"/>
				<path fill="#2043A1" d="M61.2,66c2.2,1.2,3.9,4.3,3.9,6.8l-0.3,91c0,2.5-1.8,3.5-3.9,2.2l-40.8-23.5c-2.2-1.2-3.9-4.3-3.9-6.8
					l0.3-91c0-2.5,1.8-3.5,3.9-2.2L61.2,66z"/>
			</g>
			<g>
				<path fill="#D1E9F2" d="M62.2,159c0,2.4-1.7,3.4-3.8,2.2l-35.7-20.6c-2.1-1.2-3.8-4.2-3.8-6.6l0-84.2c0-2.4,1.7-3.4,3.8-2.2
					l35.7,20.6c2.1,1.2,3.8,4.2,3.8,6.6V159z"/>
				<path fill="#32A2ED" d="M48.9,130c0,1.8-1.3,2.6-2.9,1.7l-10.9-6.3c-1.6-0.9-2.9-3.2-2.9-5l0-1.2c0-1.8,1.3-2.6,2.9-1.7
					l10.9,6.3c1.6,0.9,2.9,3.2,2.9,5L48.9,130z"/>
				<g>
					<path fill="#FFFFFF" d="M57,97.6c0,1.8-1.7,2.2-3.8,1L27.9,84.1c-2.1-1.2-3.8-3.6-3.8-5.4c0-1.8,1.7-2.2,3.8-1l25.3,14.6
						C55.3,93.4,57,95.8,57,97.6z"/>
					<g>
						<path fill="#ADCDD9" d="M53.2,98.9L27.9,84.3c-2.2-1.3-4-3.8-4-5.8c0-1.9,1.8-2.4,4-1.2L53.2,92c2.2,1.3,4,3.8,4,5.8
							C57.2,99.6,55.4,100.2,53.2,98.9z M27.9,77.8c-2-1.1-3.6-0.7-3.6,0.9c0,1.7,1.6,3.9,3.6,5.1l25.3,14.6c2,1.1,3.6,0.7,3.6-0.9
							c0-1.7-1.6-3.9-3.6-5.1L27.9,77.8z"/>
					</g>
				</g>
				<g>
					<path fill="#FFFFFF" d="M57,118.3c0,1.8-1.7,2.2-3.8,1l-25.3-14.6c-2.1-1.2-3.8-3.6-3.8-5.4c0-1.8,1.7-2.2,3.8-1l25.3,14.6
						C55.3,114.1,57,116.5,57,118.3z"/>
					<g>
						<path fill="#ADCDD9" d="M53.2,119.6l-25.3-14.6c-2.2-1.3-4-3.9-4-5.8c0-1.9,1.8-2.4,4-1.2l25.3,14.6c2.2,1.3,4,3.8,4,5.8
							C57.2,120.3,55.4,120.8,53.2,119.6z M27.9,98.5c-2-1.1-3.6-0.7-3.6,0.9c0,1.7,1.6,3.9,3.6,5.1l25.3,14.6
							c2,1.1,3.6,0.7,3.6-0.9c0-1.7-1.6-3.9-3.6-5.1L27.9,98.5z"/>
					</g>
				</g>
				<path fill="#FF7133" d="M47.7,85.2c0,0.7-0.7,0.8-1.5,0.3L35,79c-0.8-0.5-1.5-1.4-1.5-2.1c0-0.7,0.7-0.8,1.5-0.3l11.3,6.5
					C47.1,83.6,47.7,84.5,47.7,85.2z"/>
				<path fill="#FF7133" d="M47.7,106.5c0,0.7-0.7,0.8-1.5,0.3L35,100.3c-0.8-0.5-1.5-1.4-1.5-2.1c0-0.7,0.7-0.8,1.5-0.3l11.3,6.5
					C47.1,104.9,47.7,105.8,47.7,106.5z"/>
				<g>
					<polygon fill="#ADCDD9" points="39.7,147.4 27.2,140.2 27.2,138.1 39.7,145.3 					"/>
					<polygon fill="#ADCDD9" points="54,155.6 41.5,148.4 41.5,146.3 54,153.5 					"/>
				</g>
				<path fill="#2043A1" d="M31.9,52.5c0,0,0,1,0,2.3c0,1.3,1,2.9,2.2,3.6L47,65.8c1.2,0.7,2.2,0.3,2.3-1c0-1.3,0-2.3,0-2.3
					L31.9,52.5z"/>
			</g>
		</g>
		<g>
			<path fill="#FFD230" d="M164.9,64.2c0,0-0.3-3.3,1.5-5.5c3.1-3.8,3.4-4.9,3.4-10.2c0-7-4.9-14.4-11-17.9c-6.1-3.5-11-1.9-11,5.2
				c0,5.3,0.3,6.7,3.4,14.1c1.8,4.3,1.5,7.2,1.5,7.2L164.9,64.2z"/>
			<g>
				<path fill="#32A2ED" d="M152.6,57.1v3.8l0,0c0,0,0,0.6,0,2.2c0,1.6,3.7,8.6,6.2,10c2.5,1.4,6.2-1.3,6.2-2.9c0-1.6,0-2.2,0-2.2
					v-3.8L152.6,57.1z"/>
				<polygon fill="#32A2ED" points="158.8,73.2 158.8,73.2 158.8,73.2 				"/>
			</g>
			<g>
				<path fill="#32A2ED" d="M158,60.3c-0.1-2.5-0.7-9.7-2.4-12.4c-0.3-0.5-0.5-0.6-0.7-0.7c-0.4-0.2-0.8-0.8-0.8-1.3
					c0-0.5,0.3-0.7,0.7-0.5c0.6,0.3,1.3,0.9,1.8,1.8c0.9,1.4,1.5,3.5,1.9,5.6c0.4-2,1-3.1,1.8-3.5c0.6-0.3,1.3-0.1,2,0.4
					c0.4,0.3,0.7,0.9,0.7,1.4c-0.1,0.4-0.4,0.6-0.9,0.3c-0.3-0.2-0.6-0.3-0.8-0.2c-0.5,0.2-1.8,1.7-1.8,10L158,60.3z"/>
			</g>
		</g>
		<path fill="#FF7133" d="M126.5,37.1c0,1.2-0.3,2.2-0.9,2.9l-17.9-10.4c-0.7-1.1-1.2-2.3-1.2-3.5c0-2,1.4-2.8,3.1-1.8
			c0.1,0.1,0.2,0.1,0.3,0.2v0c0-3.8,2.6-5.3,5.9-3.4c2.3,1.3,4.3,3.9,5.2,6.7c0,0,0.1,0,0.1,0.1C124.2,29.6,126.5,33.7,126.5,37.1z"
			/>
		<g>
			<path fill="#32A2ED" d="M80,26.8c-0.2,0.4-1.6,0-2.2-0.3c-0.6-0.4-2.7-1.6-6.4-3.8c-3.7-2.2-4.7-8.5-4.2-11.6
				c0.5-3,4.5,1.9,7,3.4c0,0-1.2-4.5-0.5-6.1c0.4-0.9,2.5,0.1,2.7,1.6c0.1,1.5,0.5,4.9,2.8,7.3C80.1,18.7,80.9,25.3,80,26.8z"/>
			<path fill="#2043A1" d="M82,28c0,0.7-0.5,1-1.2,0.6l-0.8-0.4c-0.6-0.4-1.1-1.3-1.1-2l0.1-8.9c0-0.7,0.5-1,1.2-0.6l0.8,0.4
				c0.6,0.4,1.1,1.3,1.1,2L82,28z"/>
		</g>
		<g>
			<polygon fill="#32A2ED" points="226.7,207.8 208.7,197.4 208.7,185.5 226.7,196 			"/>
			<polygon fill="#E3F6FF" points="226.7,193.8 208.7,183.3 208.7,185.5 226.7,196 			"/>
			<g>
				<path fill="#FFFFFF" d="M211.3,197.1c-0.1-0.1-0.3-0.2-0.4-0.4c-0.2-0.4-0.2-0.8,0-0.9l2.7-1.6l-2.7-4.7c-0.2-0.4-0.2-0.8,0-0.9
					c0.2-0.1,0.6,0.1,0.8,0.5l3.1,5.4c0.1,0.2,0.2,0.4,0.2,0.6c0,0.2-0.1,0.3-0.2,0.4l-3.1,1.8C211.6,197.2,211.4,197.2,211.3,197.1
					z"/>
			</g>
			<g>
				<path fill="#FFFFFF" d="M224.4,204.7l-8.8-5.1c-0.3-0.2-0.6-0.6-0.6-1c0-0.4,0.3-0.5,0.6-0.3l8.8,5.1c0.3,0.2,0.6,0.6,0.6,1
					C224.9,204.7,224.7,204.9,224.4,204.7z"/>
			</g>
		</g>
		<path fill="#32A2ED" d="M200.9,82.8l-0.6-0.3c-0.1-0.5-0.3-1.1-0.5-1.6l0.4-0.2c0.3-0.2,0.3-0.7,0-1.2l-1.4-2.4
			c-0.3-0.5-0.8-0.8-1.1-0.6l-0.4,0.2c-0.4-0.4-0.7-0.8-1.2-1.2v-0.7c0-0.5-0.3-1.1-0.8-1.3l-2-1.2c-0.4-0.2-0.8,0-0.8,0.4l0,0.7
			c-0.4-0.1-0.8-0.1-1.1-0.1l-0.4-0.7c-0.3-0.5-0.8-0.8-1.1-0.6l-1.4,0.8c-0.3,0.2-0.3,0.7,0,1.2l0.4,0.7c-0.2,0.3-0.4,0.7-0.5,1.1
			l-0.6-0.3c-0.4-0.2-0.8,0-0.8,0.4V78c0,0.5,0.3,1.1,0.8,1.3l0.6,0.3c0.1,0.5,0.3,1.1,0.5,1.6l-0.4,0.2c-0.3,0.2-0.3,0.7,0,1.2
			l1.4,2.4c0.3,0.5,0.8,0.8,1.1,0.6l0.4-0.2c0.4,0.4,0.7,0.8,1.1,1.2l0,0.7c0,0.5,0.3,1.1,0.8,1.3l2,1.2c0.4,0.2,0.8,0,0.8-0.4
			l0-0.7c0.4,0.1,0.8,0.1,1.2,0.1l0.4,0.7c0.3,0.5,0.8,0.8,1.1,0.6l1.4-0.8c0.3-0.2,0.3-0.7,0-1.2l-0.4-0.7c0.2-0.3,0.4-0.7,0.5-1.1
			l0.6,0.3c0.4,0.2,0.8,0,0.8-0.4v-2.3C201.6,83.6,201.3,83,200.9,82.8z M194.4,84.8c-1.8-1-3.2-3.6-3.3-5.6c0-2.1,1.5-2.9,3.3-1.9
			c1.8,1,3.3,3.6,3.3,5.6C197.7,85,196.2,85.8,194.4,84.8z"/>
		<g>
			<g>
				<path fill="#2043A1" d="M184.1,232.1c-0.1-0.1-0.3-0.2-0.4-0.4c-0.2-0.4-0.2-0.8,0-0.9l2.7-1.6l-2.7-4.7c-0.2-0.4-0.2-0.8,0-0.9
					c0.2-0.1,0.6,0.1,0.8,0.5l3.1,5.4c0.1,0.2,0.2,0.4,0.2,0.6c0,0.2-0.1,0.3-0.2,0.4l-3.1,1.8C184.4,232.2,184.3,232.2,184.1,232.1
					z"/>
			</g>
			<g>
				<path fill="#2043A1" d="M171,224.5c-0.1-0.1-0.3-0.2-0.4-0.4l-3.1-5.4c-0.1-0.2-0.2-0.4-0.2-0.6c0-0.2,0.1-0.3,0.2-0.4l3.1-1.8
					c0.2-0.1,0.6,0.1,0.8,0.5c0.2,0.4,0.2,0.8,0,0.9l-2.7,1.6l2.7,4.7c0.2,0.4,0.2,0.8,0,0.9C171.3,224.6,171.1,224.6,171,224.5z"/>
			</g>
			<g>
				<path fill="#2043A1" d="M173.2,225.8c-0.1,0-0.1-0.1-0.2-0.1c-0.3-0.3-0.5-0.8-0.4-1l2.1-6c0.1-0.3,0.4-0.3,0.7,0
					c0.3,0.3,0.5,0.8,0.4,1l-2.1,6C173.7,225.9,173.5,225.9,173.2,225.8z"/>
			</g>
			<g>
				<path fill="#2043A1" d="M181.9,230.8l-5.3-3.1c-0.3-0.2-0.6-0.6-0.6-1c0-0.4,0.3-0.5,0.6-0.3l5.3,3.1c0.3,0.2,0.6,0.6,0.6,1
					C182.4,230.8,182.2,231,181.9,230.8z"/>
			</g>
		</g>
		<g>
			<g>
				<path fill="#2043A1" d="M148.9,226.6l-71.7-41.4V161l71.7,41.4L148.9,226.6z M78.3,184.5l69.6,40.2V203l-69.6-40.2V184.5z"/>
			</g>
			<polygon fill="#32A2ED" points="150.1,205.6 146.7,203.7 146.7,199.8 150.1,201.7 			"/>
			<polygon fill="#32A2ED" points="150.1,228.6 146.7,226.6 146.7,222.7 150.1,224.7 			"/>
			<polygon fill="#32A2ED" points="79.4,164.8 76.1,162.9 76.1,159 79.4,160.9 			"/>
			<polygon fill="#32A2ED" points="150.1,217.1 146.7,215.1 146.7,211.2 150.1,213.2 			"/>
			<polygon fill="#32A2ED" points="79.4,176.3 76.1,174.3 76.1,170.4 79.4,172.4 			"/>
			<polygon fill="#32A2ED" points="79.4,187.8 76.1,185.8 76.1,181.9 79.4,183.9 			"/>
			<polygon fill="#32A2ED" points="114.8,185.2 111.4,183.3 111.4,179.4 114.8,181.3 			"/>
			<polygon fill="#32A2ED" points="114.8,208.2 111.4,206.2 111.4,202.3 114.8,204.3 			"/>
			<polygon fill="#FFFFFF" points="148.5,202.1 150.9,211 152,208.6 155.1,213.2 156.6,212.4 153.5,207.9 156.4,208.2 			"/>
		</g>
		<g>
			<polygon fill="#D1E9F2" points="179.3,214.3 129.9,185.8 129.9,105.6 179.3,134.1 			"/>
			<g>
				<path fill="#FFFFFF" d="M172.5,147.3c0,1.9-1.7,2.5-3.8,1.3l-28.1-16.2c-2.1-1.2-3.8-3.8-3.8-5.7c0-1.9,1.7-2.5,3.8-1.3
					l28.1,16.2C170.7,142.8,172.5,145.4,172.5,147.3z"/>
				<g>
					<path fill="#ADCDD9" d="M168.7,148.9l-28.1-16.2c-2.2-1.3-4-4-4-6c0-2.1,1.8-2.7,4-1.4l28.1,16.2c2.2,1.3,4,4,4,6
						C172.6,149.5,170.9,150.1,168.7,148.9z M140.6,125.6c-2-1.1-3.6-0.6-3.6,1.2c0,1.8,1.6,4.2,3.6,5.4l28.1,16.2
						c2,1.1,3.6,0.6,3.6-1.2c0-1.8-1.6-4.2-3.6-5.4L140.6,125.6z"/>
				</g>
			</g>
			<g>
				<path fill="#FFFFFF" d="M172.5,167.3c0,1.9-1.7,2.5-3.8,1.3l-28.1-16.2c-2.1-1.2-3.8-3.8-3.8-5.7c0-1.9,1.7-2.5,3.8-1.3
					l28.1,16.2C170.7,162.8,172.5,165.3,172.5,167.3z"/>
				<g>
					<path fill="#ADCDD9" d="M168.7,168.8l-28.1-16.2c-2.2-1.3-4-4-4-6c0-2.1,1.8-2.7,4-1.4l28.1,16.2c2.2,1.3,4,4,4,6
						C172.6,169.4,170.9,170.1,168.7,168.8z M140.6,145.6c-2-1.1-3.6-0.6-3.6,1.2c0,1.8,1.6,4.2,3.6,5.4l28.1,16.2
						c2,1.1,3.6,0.6,3.6-1.2c0-1.8-1.6-4.2-3.6-5.4L140.6,145.6z"/>
				</g>
			</g>
			<path fill="#FF7133" d="M162.4,133.8c0,0.7-0.7,0.9-1.5,0.4l-12.5-7.2c-0.8-0.5-1.5-1.5-1.5-2.2c0-0.7,0.7-0.9,1.5-0.4l12.5,7.2
				C161.7,132.1,162.4,133.1,162.4,133.8z"/>
			<path fill="#FF7133" d="M162.4,154.4c0,0.7-0.7,0.9-1.5,0.4l-12.5-7.2c-0.8-0.5-1.5-1.5-1.5-2.2c0-0.7,0.7-0.9,1.5-0.4l12.5,7.2
				C161.7,152.7,162.4,153.7,162.4,154.4z"/>
			<g>
				<polygon fill="#ADCDD9" points="153.5,194.7 138,185.7 138,183.1 153.5,192.1 				"/>
				<polygon fill="#ADCDD9" points="171.2,204.9 155.7,195.9 155.7,193.3 171.2,202.3 				"/>
			</g>
			<path fill="#32A2ED" d="M163,180.1c0,1.8-1.3,2.6-2.9,1.7l-10.9-6.3c-1.6-0.9-2.9-3.2-2.9-5v-1.2c0-1.8,1.3-2.6,2.9-1.7l10.9,6.3
				c1.6,0.9,2.9,3.2,2.9,5L163,180.1z"/>
		</g>
	</g>
</g>
<g id="Layer_2">
</g>
</svg>
